<svg xmlns="http://www.w3.org/2000/svg" viewBox="0 0 24 24" fill="white"><path d="M19.64,12.75a6.6,6.6,0,0,1-4.25,6.12,6.23,6.23,0,0,1-7.24-1.2,1,1,0,0,1-.53-.6,1,1,0,0,1,.6-.52,1,1,0,0,1,.59.1,4,4,0,0,0,4.72.8,4.24,4.24,0,0,0,2.71-4,1.13,1.13,0,0,1-.18-2.31,6.59,6.59,0,0,1,3.61-1.35V12.75Zm-.44-2.14a1,1,0,0,1-1.42,0,5.77,5.77,0,0,0-4.32-2.1,5.92,5.92,0,0,0-5.32,3.12,6.59,6.59,0,0,1,4.75-2.29,1,1,0,0,1,.56.16A5.59,5.59,0,0,1,19.2,10.61ZM12,2A10,10,0,1,0,22,12,10,10,0,0,0,12,2ZM12,20.53A8.53,8.53,0,1,1,20.53,12,8.54,8.54,0,0,1,12,20.53ZM12.7,4.3a2.64,2.64,0,0,0-2.09,1A2.58,2.58,0,0,0,9,5.71a2.53,2.53,0,0,0-.7,3.33.5.5,0,0,1-.21.21.51.51,0,0,1-.7-.05.52.52,0,0,1-.13-.3,3.58,3.58,0,0,1,.91-4.7,3.62,3.62,0,0,1,5.2,0,3.54,3.54,0,0,1,.87,4.68.5.5,0,0,1-.39.26.49.49,0,0,1-.47-.2,3.31,3.31,0,0,1-.12-.48A2.62,2.62,0,0,0,12.7,4.3Z"/></svg>
