<svg xmlns="http://www.w3.org/2000/svg" viewBox="0 0 100 25" fill="white"><path d="M17.8 2.3c-2.4 0-4.4 0.5-6.1 1.6-1.7 1.1-2.9 2.6-3.8 4.5-0.8 1.9-1.2 4.1-1.2 6.5s0.4 4.6 1.2 6.5c0.8 1.9 2.1 3.4 3.8 4.5 1.7 1.1 3.7 1.6 6.1 1.6 2.4 0 4.4-0.5 6.1-1.6 1.7-1.1 2.9-2.6 3.8-4.5 0.8-1.9 1.2-4.1 1.2-6.5s-0.4-4.6-1.2-6.5c-0.8-1.9-2.1-3.4-3.8-4.5-1.7-1.1-3.7-1.6-6.1-1.6z m0 20c-1.8 0-3.4-0.4-4.8-1.2-1.4-0.8-2.4-2-3.1-3.4-0.7-1.5-1-3.2-1-5.1s0.3-3.6 1-5.1c0.7-1.5 1.7-2.6 3.1-3.4 1.4-0.8 3-1.2 4.8-1.2s3.4 0.4 4.8 1.2c1.4 0.8 2.4 2 3.1 3.4 0.7 1.5 1 3.2 1 5.1s-0.3 3.6-1 5.1c-0.7 1.5-1.7 2.6-3.1 3.4-1.4 0.8-3 1.2-4.8 1.2z"></path><path d="M32.6 2.3v20h5.5v-7h6.6c2.4 0 4.4-0.5 6-1.4 1.6-0.9 2.8-2.2 3.5-3.8 0.7-1.6 1.1-3.4 1.1-5.3s-0.4-3.7-1.1-5.3c-0.7-1.6-1.9-2.9-3.5-3.8-1.6-0.9-3.6-1.4-6-1.4h-12.1z m5.5 15.5v-11h6.6c1.6 0 2.9 0.3 3.9 0.9 1 0.6 1.8 1.4 2.3 2.5 0.5 1.1 0.7 2.3 0.7 3.6s-0.2 2.5-0.7 3.6c-0.5 1.1-1.3 1.9-2.3 2.5-1 0.6-2.3 0.9-3.9 0.9h-6.6z"></path><path d="M74.9 10.3l-5.6 5.8 5.6 6.2h-6.1l-5.6-6.2 5.6-5.8h6.1zM65.4 22.3v-20h5.5v20h-5.5zM94.5 10.3v-8h-5.5v8h-8v-8h-5.5v20h5.5v-8h8v8h5.5v-12h-5.5z"></path></svg>
