<svg xmlns="http://www.w3.org/2000/svg" viewBox="0 0 300 171.1" fill="#fff"><path d="M31.2 119.3c-1.2-1.3-2.9-2-5.1-2-1.8 0-3.3.6-4.5 1.7-1.2 1.2-1.8 2.8-1.8 4.8 0 2.9 1 5.2 3 6.8 2 1.6 4.7 2.5 8.1 2.5 5.6 0 9.8-1.7 12.6-5.2 2.8-3.4 4.2-7.8 4.2-13.1s-1.4-9.6-4.2-13.1c-2.8-3.4-6.9-5.2-12.3-5.2-6.1 0-11 2-14.7 6.1-3.6 4.1-5.4 9.4-5.4 15.9 0 4.2 1 7.8 3.1 10.9 2.1 3 4.9 5.3 8.4 6.7 3.5 1.5 7.4 2.2 11.7 2.2 4.6 0 9-.8 13.1-2.4 4.1-1.6 7.4-3.7 9.9-6.4 2.5-2.7 3.7-5.7 3.7-8.9 0-3.5-1-6.5-3-9.1-2-2.6-4.8-4.5-8.4-5.6-3.6-1.2-7.8-1.7-12.6-1.7-12.5 0-21.7 4.1-27.7 12.3-6 8.2-9 19.3-9 33.3s3 25.8 9 34.4c6 8.5 15.3 12.8 27.8 12.8 5.6 0 11.2-1.4 16.7-4.2 5.5-2.8 10-6.7 13.4-11.7l13 7.8c-4.7 6.8-10.7 12.1-18.1 15.9s-15.5 5.7-24.3 5.7c-16.1 0-29.3-4.8-39.4-14.4C-2.5 142.3-7.5 125-7.5 105c0-20.1 5-37.1 15-51C17.5 40.2 30.7 33 47.1 33c10.1 0 18.9 2.5 26.5 7.4 7.6 4.9 13.2 11.4 16.7 19.5 3.5 8.1 5.3 17.5 5.3 28.1 0 12.5-2.4 23.3-7.2 32.4-4.8 9.1-11.4 16.2-19.8 21.2-8.4 5-18.1 7.5-29 7.5-12.9 0-23.3-4.2-31.2-12.5-7.9-8.4-11.9-19.5-11.9-33.3 0-13.8 4-24.9 11.9-33.3C18.6 57.7 29 53.5 42 53.5c8.6 0 16 2.3 22.3 7 6.3 4.6 10.7 10.8 13.3 18.7.9 2.6 1.3 5.3 1.3 8.1 0 2.2-.6 4.3-1.7 6.2-1.2 2-2.9 3.5-5.2 4.5s-4.8 1.5-7.5 1.5c-4.8 0-8.8-1.5-12-4.5s-4.8-7-4.8-11.9z"></path><path d="M110.1 169.8V34.4h22.2v135.4h-22.2z"></path><path d="m204.6 116.5-13-17.2c3.2-2.3 5.9-5 8.1-8.1 2.2-3.1 3.3-6.5 3.3-10.2 0-6.1-2-11.1-5.9-15.2-4-4-9-6.1-15.2-6.1-5.1 0-9.6 1.4-13.5 4.2-3.9 2.8-6.8 6.5-8.8 11.1s-3 9.9-3 15.9c0 5.6 1.2 10.6 3.5 15s5.5 7.9 9.4 10.5c4 2.6 8.5 3.9 13.5 3.9 4.3 0 8.4-1 12.1-3.1l14 18.1h25.4V34.4h-22.2v82.1z m-26.6-9.9c-3.1 0-5.8-1.2-8.1-3.5s-3.5-5.2-3.5-8.8c0-4.2 1.2-7.7 3.5-10.5 2.4-2.8 5.3-4.2 8.8-4.2 3.1 0 5.8 1.3 8.1 4 2.3 2.7 3.5 6.1 3.5 10.1 0 3.7-1.2 6.8-3.5 9.4s-5.1 3.9-8.8 3.9z"></path><path d="M259.9 122.9v46.9h-22.2V34.4h21.1c11.9 0 21.1 1.7 27.7 5.2 6.6 3.5 9.9 8.6 9.9 15.2 0 4.8-1.5 8.8-4.5 12.1-3 3.3-7.2 5.5-12.6 6.7l19.5 49.3h-25.7l-13.7-35.4h-3.3v25.4h2.2zm0-24.3h3.3c4.8 0 8.5-.9 11.1-2.6 2.6-1.8 3.9-4.2 3.9-7.2 0-3.7-1.3-6.5-3.9-8.4-2.6-1.9-6.4-2.8-11.4-2.8h-3v23.6h-.1z"></path><path fill="#3958D8" d="M152.6 122.9h54.9v22.2h-54.9z"></path></svg>
