<svg xmlns="http://www.w3.org/2000/svg" viewBox="0 0 100 29"><path fill="#00A8E1" d="M26.2.7c-3.6 0-6.2 1.3-8 3.8-.9 1.3-1.4 3-1.4 5S18 14.2 19 15.5c1.8 2.5 4.3 3.8 8 3.8h9.8V.7H26.2zM36 15.4H26.2c-2.4 0-4.1-1.1-5.3-3.3-.9-1.6-1.3-3.6-1.3-6 0-2.4.5-4.4 1.4-6C22.2 1.2 24.1.6 26.2.6H36v14.8zM45.5.7v18.6h8.7V.7h-8.7zM57.6.7v18.6h11.2c4.1 0 6.6-1.7 6.6-5.1 0-2.1-.9-3.6-2.6-4.5 1.5-.7 2.3-2.1 2.3-3.9 0-2.9-2-4.4-5.6-4.4H57.6zm9 3.8h1.1c1.3 0 1.9.5 1.9 1.4s-.6 1.4-1.9 1.4h-1.1V4.5zm0 6h1.5c1.5 0 2.2.6 2.2 1.6s-.7 1.6-2.2 1.6h-1.5v-3.2zM98.9 12.5l-5.6 6.8h-9.3L94.9.7h8.7l-10.4 11.8 5.7 6.8z"></path><path fill="#00A8E1" d="M7.6 29c-4.3 0-7.6-3.4-7.6-7.6s3.4-7.6 7.6-7.6 7.6 3.4 7.6 7.6-3.4 7.6-7.6 7.6zm0-12.8c-2.9 0-5.2 2.3-5.2 5.2s2.3 5.2 5.2 5.2 5.2-2.3 5.2-5.2-2.4-5.2-5.2-5.2zM21.9 29h-2.4l-7-8.1v8.1h-2.4V13.8h2.4l7 8.1v-8.1h2.4zM24.7 18.2c0-3.1 2-4.4 5.3-4.4h2.2v-2.1h-2.1c-1.8 0-3-.8-3-2.9v-1.1h5.8V29h-2.3v-8.4h-1.1l-1.8 8.4h-2L23 20.3v-2.1zM38.8 29h-2.3V13.8h2.3zM45.9 29h-2.4l-7-8.1v8.1h-2.4V13.8h2.4l7 8.1v-8.1h2.4zM53.1 29V13.8h2.3v15.2zM58.3 29V13.8h8.2c3.4 0 5.4 1.5 5.4 4.3s-2 4.3-5.4 4.3h-5.9v6.6zm2.3-8.6h5.9c1.9 0 3.1-1 3.1-2s-1.2-2-3.1-2h-5.9zM73 29V13.8h2.3v15.2zM80.1 29h-2.3l-2.6-4.6-2.6 4.6h-2.3L75.1 19l-4.8-5.2h2.5l3.5 3.9 3.5-3.9h2.5L78 19zM82.8 29V13.8h8.2c3.4 0 5.4 1.5 5.4 4.3s-2 4.3-5.4 4.3h-5.9v6.6zm2.3-8.6h5.9c1.9 0 3.1-1 3.1-2s-1.2-2-3.1-2h-5.9zM.7 9.3V.7h9.8v3.1c1.1-1.7 2.8-2.5 5-2.5h2.8V9c-1.8 0-3 .6-4 1.9-1.3 1.6-2 3.8-2 6.4v11.7H.7V9.3z"></path></svg>
