<svg xmlns="http://www.w3.org/2000/svg" width="24" height="24" viewBox="0 0 24 24" fill="none" stroke="currentColor" stroke-width="2" stroke-linecap="round" stroke-linejoin="round" class="lucide lucide-popcorn"><path d="M12.28 21.12a2.6 2.6 0 0 0-3.32-2.88 2.6 2.6 0 0 0-2.88-3.32 2.6 2.6 0 0 0-3.18-2.92c-1.39.12-2.5 1.3-2.5 2.78A5.4 5.4 0 0 0 5.8 21c.88 0 1.7-.37 2.33-.99.51-.51.87-1.13.99-1.89Zm7.44-1.13c.12.76.48 1.38.99 1.89.63.62 1.45.99 2.33.99a5.4 5.4 0 0 0 5.4-5.4c0-1.48-1.11-2.66-2.5-2.78a2.6 2.6 0 0 0-3.18 2.92 2.6 2.6 0 0 0-2.88 3.32 2.6 2.6 0 0 0-3.32 2.88Z"/><path d="M22 10.5c0-1.4-1.2-2.5-2.7-2.5s-2.7 1.1-2.7 2.5c0 .8.4 1.6 1 2.1l.6.5c.3.2.6.4.8.7.2.3.3.6.3 1v1.2H18c-1.5 0-2.8 1.2-2.8 2.8V17h.5c.3 0 .5-.2.5-.5V16c0-.8 1.3-1.5 2.8-1.5h1.4v-1c0-1.1.9-2 2-2h.3c.6 0 1.1-.3 1.5-.6.4-.3.6-.8.6-1.4Z"/><path d="M15.2 11.2c.3-.5.9-.8 1.5-.8h.3c1.1 0 2 .9 2 2v1h1.4c1.5 0 2.8.7 2.8 1.5v.5c0 .3.2.5.5.5h.5v-.3c0-1.5-1.2-2.8-2.8-2.8H18v-1c0-.4-.1-.8-.3-1.1-.2-.3-.5-.6-.8-.8l-.6-.5c-.6-.5-1-1.3-1-2.1Z"/><path d="M6.8 11.2c-.3-.5-.9-.8-1.5-.8H5c-1.1 0-2 .9-2-2v1H1.6C.1 13.4 0 12.7 0 12v-.5c0-.3-.2-.5-.5-.5H0v.3C0 13.2 1.2 14.5 2.8 14.5H4v1c0 .4.1.8.3 1.1.2.3.5.6.8.8l.6.5c.6.5 1 1.3 1 2.1v1.4c0 1.5-1.2 2.8-2.8 2.8H3.5c-.3 0-.5.2-.5.5v.5h.3c1.4 0 2.5-1.2 2.5-2.7s-1.1-2.7-2.5-2.7c-.8 0-1.6.4-2.1 1l-.5.6c-.2.3-.4.6-.7.8-.3.2-.6.3-1 .3h-1.2V18c0-1.5 1.2-2.8 2.8-2.8H4v-1c0-1.1-.9-2-2-2h-.3c-.6 0-1.1.3-1.5.6-.4.3-.6.8-.6 1.4v.5H-.5c0-.3.2-.5.5-.5h.5V11c0-1.5 1.2-2.7 2.8-2.7H4c.8 0 1.6-.4 2.1-1l.5-.6c.3-.2.5-.5.8-.7.2-.3.3-.6.3-1V6h1.4c1.5 0 2.8-1.2 2.8-2.8V2.7c0-.3-.2-.5-.5-.5H8.5v.3c0 1.1-.9 2-2 2H6v1.4c0 1.5-1.2 2.8-2.8 2.8H2.7c-.3 0-.5.2-.5.5v.5h.3c.6 0 1.1.3 1.5.6.4.3.6.8.6 1.4v.5h.5c.3 0 .5-.2.5-.5v-.5c0-1.1.9-2 2-2h.3c.6 0 1.1.3 1.5.6.4.3.6.8.6 1.4Z"/></svg>
    